<mxfile host="65bd71144e">
    <diagram id="R2lEEEUBdFMjLlhIrx00" name="RecreationalFacilityManagementSystem">
        <mxGraphModel dx="340" dy="296" grid="0" gridSize="10" guides="1" tooltips="1" connect="1" arrows="1" fold="1" page="1" pageScale="1" pageWidth="850" pageHeight="1100" background="#ffffff" math="0" shadow="0" extFonts="Permanent Marker^https://fonts.googleapis.com/css?family=Permanent+Marker">
            <root>
                <mxCell id="0"/>
                <mxCell id="1" parent="0"/>
                <mxCell id="12A3PGkBAE_qX95ZuoiP-11" value="" style="rounded=0;orthogonalLoop=1;jettySize=auto;html=1;fontSize=12;endArrow=none;endFill=0;strokeColor=#030303;" parent="1" source="12A3PGkBAE_qX95ZuoiP-1" target="12A3PGkBAE_qX95ZuoiP-6" edge="1">
                    <mxGeometry relative="1" as="geometry"/>
                </mxCell>
                <mxCell id="12A3PGkBAE_qX95ZuoiP-13" value="" style="edgeStyle=orthogonalEdgeStyle;rounded=0;orthogonalLoop=1;jettySize=auto;html=1;fontSize=12;endArrow=none;endFill=0;strokeColor=#030303;" parent="1" source="12A3PGkBAE_qX95ZuoiP-1" target="12A3PGkBAE_qX95ZuoiP-8" edge="1">
                    <mxGeometry relative="1" as="geometry"/>
                </mxCell>
                <mxCell id="12A3PGkBAE_qX95ZuoiP-1" value="&lt;font style=&quot;font-size: 14px;&quot;&gt;Facility&lt;/font&gt;" style="rounded=1;whiteSpace=wrap;html=1;shadow=1;strokeWidth=2;strokeColor=#030303;" parent="1" vertex="1">
                    <mxGeometry x="244" y="207" width="80" height="40" as="geometry"/>
                </mxCell>
                <mxCell id="12A3PGkBAE_qX95ZuoiP-62" style="edgeStyle=none;rounded=0;orthogonalLoop=1;jettySize=auto;html=1;exitX=1;exitY=0;exitDx=0;exitDy=0;entryX=0;entryY=0.5;entryDx=0;entryDy=0;fontSize=10;endArrow=none;endFill=0;strokeColor=#030303;" parent="1" source="12A3PGkBAE_qX95ZuoiP-2" target="12A3PGkBAE_qX95ZuoiP-61" edge="1">
                    <mxGeometry relative="1" as="geometry"/>
                </mxCell>
                <mxCell id="12A3PGkBAE_qX95ZuoiP-2" value="&lt;font style=&quot;font-size: 14px;&quot;&gt;User&lt;/font&gt;" style="rounded=1;whiteSpace=wrap;html=1;shadow=1;strokeWidth=2;strokeColor=#030303;" parent="1" vertex="1">
                    <mxGeometry x="267" y="427" width="80" height="40" as="geometry"/>
                </mxCell>
                <mxCell id="12A3PGkBAE_qX95ZuoiP-42" style="rounded=0;orthogonalLoop=1;jettySize=auto;html=1;exitX=0.5;exitY=1;exitDx=0;exitDy=0;fontSize=12;endArrow=none;endFill=0;strokeColor=#030303;" parent="1" source="12A3PGkBAE_qX95ZuoiP-3" target="12A3PGkBAE_qX95ZuoiP-40" edge="1">
                    <mxGeometry relative="1" as="geometry"/>
                </mxCell>
                <mxCell id="12A3PGkBAE_qX95ZuoiP-44" style="rounded=0;orthogonalLoop=1;jettySize=auto;html=1;exitX=0.75;exitY=1;exitDx=0;exitDy=0;entryX=0;entryY=0.5;entryDx=0;entryDy=0;fontSize=12;endArrow=none;endFill=0;strokeColor=#030303;" parent="1" source="12A3PGkBAE_qX95ZuoiP-3" target="12A3PGkBAE_qX95ZuoiP-39" edge="1">
                    <mxGeometry relative="1" as="geometry"/>
                </mxCell>
                <mxCell id="12A3PGkBAE_qX95ZuoiP-63" style="edgeStyle=none;rounded=0;orthogonalLoop=1;jettySize=auto;html=1;exitX=0;exitY=0.5;exitDx=0;exitDy=0;entryX=1;entryY=0.5;entryDx=0;entryDy=0;fontSize=10;endArrow=none;endFill=0;strokeColor=#030303;" parent="1" source="12A3PGkBAE_qX95ZuoiP-3" target="12A3PGkBAE_qX95ZuoiP-61" edge="1">
                    <mxGeometry relative="1" as="geometry"/>
                </mxCell>
                <mxCell id="12A3PGkBAE_qX95ZuoiP-3" value="&lt;font style=&quot;font-size: 14px;&quot;&gt;Booking&lt;/font&gt;" style="rounded=1;whiteSpace=wrap;html=1;shadow=1;strokeWidth=2;strokeColor=#030303;" parent="1" vertex="1">
                    <mxGeometry x="529" y="377" width="80" height="40" as="geometry"/>
                </mxCell>
                <mxCell id="12A3PGkBAE_qX95ZuoiP-4" value="&lt;font style=&quot;font-size: 12px;&quot;&gt;Maintenance&lt;br&gt;Intervention&lt;br&gt;&lt;/font&gt;" style="rounded=1;whiteSpace=wrap;html=1;shadow=1;strokeWidth=2;strokeColor=#030303;" parent="1" vertex="1">
                    <mxGeometry x="464" y="147" width="90" height="35" as="geometry"/>
                </mxCell>
                <mxCell id="12A3PGkBAE_qX95ZuoiP-47" style="rounded=0;orthogonalLoop=1;jettySize=auto;html=1;exitX=1;exitY=0.5;exitDx=0;exitDy=0;fontSize=12;endArrow=none;endFill=0;strokeColor=#030303;" parent="1" source="12A3PGkBAE_qX95ZuoiP-5" edge="1">
                    <mxGeometry relative="1" as="geometry">
                        <mxPoint x="244" y="217" as="targetPoint"/>
                    </mxGeometry>
                </mxCell>
                <mxCell id="12A3PGkBAE_qX95ZuoiP-5" value="&lt;font style=&quot;font-size: 12px;&quot;&gt;Closest&lt;br&gt;Address&lt;/font&gt;" style="ellipse;whiteSpace=wrap;html=1;fontSize=14;strokeColor=#030303;" parent="1" vertex="1">
                    <mxGeometry x="134" y="207" width="90" height="40" as="geometry"/>
                </mxCell>
                <mxCell id="12A3PGkBAE_qX95ZuoiP-6" value="&lt;font style=&quot;font-size: 12px;&quot;&gt;CanBeReserved&lt;/font&gt;" style="ellipse;whiteSpace=wrap;html=1;fontSize=14;strokeColor=#030303;" parent="1" vertex="1">
                    <mxGeometry x="181" y="167" width="100" height="30" as="geometry"/>
                </mxCell>
                <mxCell id="12A3PGkBAE_qX95ZuoiP-49" style="rounded=0;orthogonalLoop=1;jettySize=auto;html=1;exitX=1;exitY=0.5;exitDx=0;exitDy=0;entryX=0;entryY=0.5;entryDx=0;entryDy=0;fontSize=12;endArrow=none;endFill=0;strokeColor=#030303;" parent="1" source="12A3PGkBAE_qX95ZuoiP-7" target="12A3PGkBAE_qX95ZuoiP-1" edge="1">
                    <mxGeometry relative="1" as="geometry"/>
                </mxCell>
                <mxCell id="12A3PGkBAE_qX95ZuoiP-7" value="&lt;span style=&quot;font-size: 12px;&quot;&gt;Kind&lt;/span&gt;" style="ellipse;whiteSpace=wrap;html=1;fontSize=14;strokeColor=#030303;" parent="1" vertex="1">
                    <mxGeometry x="179" y="254.5" width="45" height="25" as="geometry"/>
                </mxCell>
                <mxCell id="12A3PGkBAE_qX95ZuoiP-18" value="" style="rounded=0;orthogonalLoop=1;jettySize=auto;html=1;fontSize=12;endArrow=none;endFill=0;strokeColor=#030303;" parent="1" source="12A3PGkBAE_qX95ZuoiP-8" target="12A3PGkBAE_qX95ZuoiP-15" edge="1">
                    <mxGeometry relative="1" as="geometry"/>
                </mxCell>
                <mxCell id="12A3PGkBAE_qX95ZuoiP-8" value="&lt;span style=&quot;font-size: 12px;&quot;&gt;Description&lt;/span&gt;" style="ellipse;whiteSpace=wrap;html=1;fontSize=14;strokeColor=#030303;" parent="1" vertex="1">
                    <mxGeometry x="246.5" y="277" width="75" height="30" as="geometry"/>
                </mxCell>
                <mxCell id="12A3PGkBAE_qX95ZuoiP-17" style="rounded=0;orthogonalLoop=1;jettySize=auto;html=1;exitX=0.5;exitY=0;exitDx=0;exitDy=0;entryX=0.5;entryY=1;entryDx=0;entryDy=0;fontSize=12;endArrow=none;endFill=0;strokeColor=#030303;" parent="1" source="12A3PGkBAE_qX95ZuoiP-14" target="12A3PGkBAE_qX95ZuoiP-8" edge="1">
                    <mxGeometry relative="1" as="geometry"/>
                </mxCell>
                <mxCell id="12A3PGkBAE_qX95ZuoiP-14" value="&lt;span style=&quot;font-size: 12px;&quot;&gt;Items&lt;/span&gt;" style="ellipse;whiteSpace=wrap;html=1;fontSize=14;strokeColor=#030303;" parent="1" vertex="1">
                    <mxGeometry x="209" y="327" width="72" height="20" as="geometry"/>
                </mxCell>
                <mxCell id="12A3PGkBAE_qX95ZuoiP-15" value="&lt;span style=&quot;font-size: 12px;&quot;&gt;UsageRules&lt;/span&gt;" style="ellipse;whiteSpace=wrap;html=1;fontSize=14;strokeColor=#030303;" parent="1" vertex="1">
                    <mxGeometry x="294" y="322" width="80" height="30" as="geometry"/>
                </mxCell>
                <mxCell id="12A3PGkBAE_qX95ZuoiP-25" value="" style="rounded=0;orthogonalLoop=1;jettySize=auto;html=1;fontSize=12;endArrow=none;endFill=0;strokeColor=#030303;" parent="1" source="12A3PGkBAE_qX95ZuoiP-19" target="12A3PGkBAE_qX95ZuoiP-2" edge="1">
                    <mxGeometry relative="1" as="geometry"/>
                </mxCell>
                <mxCell id="12A3PGkBAE_qX95ZuoiP-19" value="&lt;span style=&quot;font-size: 12px;&quot;&gt;Name&lt;/span&gt;" style="ellipse;whiteSpace=wrap;html=1;fontSize=14;strokeColor=#030303;" parent="1" vertex="1">
                    <mxGeometry x="367" y="467" width="54" height="30" as="geometry"/>
                </mxCell>
                <mxCell id="12A3PGkBAE_qX95ZuoiP-29" style="rounded=0;orthogonalLoop=1;jettySize=auto;html=1;exitX=1;exitY=0.5;exitDx=0;exitDy=0;entryX=0.25;entryY=1;entryDx=0;entryDy=0;fontSize=12;endArrow=none;endFill=0;strokeColor=#030303;" parent="1" source="12A3PGkBAE_qX95ZuoiP-20" target="12A3PGkBAE_qX95ZuoiP-2" edge="1">
                    <mxGeometry relative="1" as="geometry"/>
                </mxCell>
                <mxCell id="12A3PGkBAE_qX95ZuoiP-20" value="&lt;span style=&quot;font-size: 12px;&quot;&gt;PhoneNumber&lt;br&gt;&lt;/span&gt;" style="ellipse;whiteSpace=wrap;html=1;fontSize=14;strokeColor=#030303;" parent="1" vertex="1">
                    <mxGeometry x="167" y="487" width="100" height="30" as="geometry"/>
                </mxCell>
                <mxCell id="12A3PGkBAE_qX95ZuoiP-31" style="rounded=0;orthogonalLoop=1;jettySize=auto;html=1;exitX=0;exitY=0.5;exitDx=0;exitDy=0;entryX=0.75;entryY=1;entryDx=0;entryDy=0;fontSize=12;endArrow=none;endFill=0;strokeColor=#030303;" parent="1" source="12A3PGkBAE_qX95ZuoiP-21" target="12A3PGkBAE_qX95ZuoiP-2" edge="1">
                    <mxGeometry relative="1" as="geometry"/>
                </mxCell>
                <mxCell id="12A3PGkBAE_qX95ZuoiP-21" value="&lt;span style=&quot;font-size: 12px;&quot;&gt;Email&lt;br&gt;&lt;/span&gt;" style="ellipse;whiteSpace=wrap;html=1;fontSize=14;strokeColor=#030303;" parent="1" vertex="1">
                    <mxGeometry x="324" y="499.5" width="60" height="30" as="geometry"/>
                </mxCell>
                <mxCell id="12A3PGkBAE_qX95ZuoiP-32" style="rounded=0;orthogonalLoop=1;jettySize=auto;html=1;exitX=0.5;exitY=0;exitDx=0;exitDy=0;entryX=0.5;entryY=1;entryDx=0;entryDy=0;fontSize=12;endArrow=none;endFill=0;strokeColor=#030303;" parent="1" source="12A3PGkBAE_qX95ZuoiP-22" target="12A3PGkBAE_qX95ZuoiP-2" edge="1">
                    <mxGeometry relative="1" as="geometry"/>
                </mxCell>
                <mxCell id="12A3PGkBAE_qX95ZuoiP-22" value="&lt;span style=&quot;font-size: 12px;&quot;&gt;CVR&lt;br&gt;&lt;/span&gt;" style="ellipse;whiteSpace=wrap;html=1;fontSize=14;strokeColor=#030303;" parent="1" vertex="1">
                    <mxGeometry x="257" y="517" width="60" height="30" as="geometry"/>
                </mxCell>
                <mxCell id="12A3PGkBAE_qX95ZuoiP-24" value="" style="rounded=0;orthogonalLoop=1;jettySize=auto;html=1;fontSize=12;endArrow=none;endFill=0;strokeColor=#030303;" parent="1" source="12A3PGkBAE_qX95ZuoiP-23" target="12A3PGkBAE_qX95ZuoiP-2" edge="1">
                    <mxGeometry relative="1" as="geometry"/>
                </mxCell>
                <mxCell id="12A3PGkBAE_qX95ZuoiP-23" value="&lt;span style=&quot;font-size: 12px;&quot;&gt;Category&lt;br&gt;&lt;/span&gt;" style="ellipse;whiteSpace=wrap;html=1;fontSize=14;strokeColor=#030303;" parent="1" vertex="1">
                    <mxGeometry x="174" y="447" width="70" height="30" as="geometry"/>
                </mxCell>
                <mxCell id="12A3PGkBAE_qX95ZuoiP-38" style="rounded=0;orthogonalLoop=1;jettySize=auto;html=1;exitX=0;exitY=0.5;exitDx=0;exitDy=0;entryX=1;entryY=0.75;entryDx=0;entryDy=0;fontSize=12;endArrow=none;endFill=0;strokeColor=#030303;" parent="1" source="12A3PGkBAE_qX95ZuoiP-33" target="12A3PGkBAE_qX95ZuoiP-4" edge="1">
                    <mxGeometry relative="1" as="geometry"/>
                </mxCell>
                <mxCell id="12A3PGkBAE_qX95ZuoiP-33" value="&lt;span style=&quot;font-size: 12px;&quot;&gt;Date&lt;br&gt;&lt;/span&gt;" style="ellipse;whiteSpace=wrap;html=1;fontSize=14;strokeColor=#030303;" parent="1" vertex="1">
                    <mxGeometry x="601.5" y="172" width="60" height="20" as="geometry"/>
                </mxCell>
                <mxCell id="12A3PGkBAE_qX95ZuoiP-36" value="" style="rounded=0;orthogonalLoop=1;jettySize=auto;html=1;fontSize=12;endArrow=none;endFill=0;strokeColor=#030303;" parent="1" source="12A3PGkBAE_qX95ZuoiP-35" target="12A3PGkBAE_qX95ZuoiP-4" edge="1">
                    <mxGeometry relative="1" as="geometry"/>
                </mxCell>
                <mxCell id="12A3PGkBAE_qX95ZuoiP-35" value="&lt;span style=&quot;font-size: 12px;&quot;&gt;Description&lt;/span&gt;" style="ellipse;whiteSpace=wrap;html=1;fontSize=14;strokeColor=#030303;" parent="1" vertex="1">
                    <mxGeometry x="594" y="132" width="75" height="30" as="geometry"/>
                </mxCell>
                <mxCell id="12A3PGkBAE_qX95ZuoiP-39" value="&lt;span style=&quot;font-size: 12px;&quot;&gt;HourSlots&lt;/span&gt;" style="ellipse;whiteSpace=wrap;html=1;fontSize=14;strokeColor=#030303;" parent="1" vertex="1">
                    <mxGeometry x="629" y="429.5" width="75" height="30" as="geometry"/>
                </mxCell>
                <mxCell id="12A3PGkBAE_qX95ZuoiP-40" value="&lt;span style=&quot;font-size: 12px;&quot;&gt;NumberOfParticipants&lt;/span&gt;" style="ellipse;whiteSpace=wrap;html=1;fontSize=14;strokeColor=#030303;" parent="1" vertex="1">
                    <mxGeometry x="529" y="469.5" width="150" height="30" as="geometry"/>
                </mxCell>
                <mxCell id="12A3PGkBAE_qX95ZuoiP-45" value="" style="rounded=0;orthogonalLoop=1;jettySize=auto;html=1;fontSize=12;endArrow=none;endFill=0;strokeColor=#030303;" parent="1" source="12A3PGkBAE_qX95ZuoiP-41" target="12A3PGkBAE_qX95ZuoiP-3" edge="1">
                    <mxGeometry relative="1" as="geometry"/>
                </mxCell>
                <mxCell id="12A3PGkBAE_qX95ZuoiP-41" value="&lt;span style=&quot;font-size: 12px;&quot;&gt;Note&lt;/span&gt;" style="ellipse;whiteSpace=wrap;html=1;fontSize=14;strokeColor=#030303;" parent="1" vertex="1">
                    <mxGeometry x="648" y="387" width="50" height="20" as="geometry"/>
                </mxCell>
                <mxCell id="12A3PGkBAE_qX95ZuoiP-57" value="&lt;b&gt;&lt;font style=&quot;font-size: 14px;&quot;&gt;Recreational Facility management system&lt;/font&gt;&lt;/b&gt;" style="text;html=1;strokeColor=#030303;fillColor=none;align=center;verticalAlign=middle;whiteSpace=wrap;rounded=0;shadow=1;strokeWidth=2;fontSize=12;fontColor=#0A0A0A;" parent="1" vertex="1">
                    <mxGeometry x="209" y="88" width="320" height="30" as="geometry"/>
                </mxCell>
                <mxCell id="12A3PGkBAE_qX95ZuoiP-59" style="edgeStyle=none;rounded=0;orthogonalLoop=1;jettySize=auto;html=1;exitX=0;exitY=0.5;exitDx=0;exitDy=0;entryX=1;entryY=0.5;entryDx=0;entryDy=0;fontSize=14;endArrow=none;endFill=0;strokeColor=#030303;" parent="1" source="12A3PGkBAE_qX95ZuoiP-58" target="12A3PGkBAE_qX95ZuoiP-1" edge="1">
                    <mxGeometry relative="1" as="geometry"/>
                </mxCell>
                <mxCell id="12A3PGkBAE_qX95ZuoiP-60" style="edgeStyle=none;rounded=0;orthogonalLoop=1;jettySize=auto;html=1;exitX=1;exitY=0.5;exitDx=0;exitDy=0;fontSize=14;endArrow=none;endFill=0;strokeColor=#030303;" parent="1" source="12A3PGkBAE_qX95ZuoiP-58" target="12A3PGkBAE_qX95ZuoiP-4" edge="1">
                    <mxGeometry relative="1" as="geometry"/>
                </mxCell>
                <mxCell id="12A3PGkBAE_qX95ZuoiP-58" value="&lt;font style=&quot;font-size: 10px;&quot;&gt;Undergoes&lt;/font&gt;" style="shape=rhombus;perimeter=rhombusPerimeter;whiteSpace=wrap;html=1;align=center;rounded=1;shadow=1;strokeWidth=2;fontSize=12;strokeColor=#030303;" parent="1" vertex="1">
                    <mxGeometry x="367" y="192" width="80" height="40" as="geometry"/>
                </mxCell>
                <mxCell id="12A3PGkBAE_qX95ZuoiP-61" value="Makes" style="shape=rhombus;perimeter=rhombusPerimeter;whiteSpace=wrap;html=1;align=center;rounded=1;shadow=1;strokeWidth=2;fontSize=10;strokeColor=#030303;" parent="1" vertex="1">
                    <mxGeometry x="404" y="377" width="80" height="40" as="geometry"/>
                </mxCell>
                <mxCell id="2" value="Reserves" style="shape=rhombus;perimeter=rhombusPerimeter;whiteSpace=wrap;html=1;align=center;rounded=1;shadow=1;strokeWidth=2;fontSize=10;strokeColor=#030303;" parent="1" vertex="1">
                    <mxGeometry x="454" y="247" width="80" height="40" as="geometry"/>
                </mxCell>
                <mxCell id="4" style="edgeStyle=none;rounded=0;orthogonalLoop=1;jettySize=auto;html=1;exitX=0.5;exitY=0;exitDx=0;exitDy=0;fontSize=10;endArrow=none;endFill=0;entryX=1;entryY=0.5;entryDx=0;entryDy=0;strokeColor=#030303;" parent="1" source="12A3PGkBAE_qX95ZuoiP-3" target="2" edge="1">
                    <mxGeometry relative="1" as="geometry">
                        <mxPoint x="539" y="407" as="sourcePoint"/>
                        <mxPoint x="604" y="277" as="targetPoint"/>
                    </mxGeometry>
                </mxCell>
                <mxCell id="5" style="edgeStyle=none;rounded=0;orthogonalLoop=1;jettySize=auto;html=1;exitX=0;exitY=0.5;exitDx=0;exitDy=0;fontSize=10;endArrow=none;endFill=0;entryX=1;entryY=0.75;entryDx=0;entryDy=0;strokeColor=#030303;" parent="1" source="2" target="12A3PGkBAE_qX95ZuoiP-1" edge="1">
                    <mxGeometry relative="1" as="geometry">
                        <mxPoint x="446.5" y="347" as="sourcePoint"/>
                        <mxPoint x="441.5" y="247" as="targetPoint"/>
                    </mxGeometry>
                </mxCell>
                <mxCell id="7" value="&lt;font style=&quot;font-size: 10px&quot;&gt;CVR is optional for private users, but requireded if user is representin company etc.&lt;/font&gt;" style="shape=note;size=20;whiteSpace=wrap;html=1;fontColor=#0A0A0A;strokeColor=#030303;strokeWidth=2;fillColor=#FFFFFF;" parent="1" vertex="1">
                    <mxGeometry x="37" y="377" width="130" height="100" as="geometry"/>
                </mxCell>
                <mxCell id="8" value="&lt;span style=&quot;font-size: 12px&quot;&gt;Name&lt;/span&gt;" style="ellipse;whiteSpace=wrap;html=1;fontSize=14;strokeColor=#030303;" parent="1" vertex="1">
                    <mxGeometry x="49" y="195" width="72" height="20" as="geometry"/>
                </mxCell>
                <mxCell id="9" value="&lt;span style=&quot;font-size: 12px&quot;&gt;Number&lt;/span&gt;" style="ellipse;whiteSpace=wrap;html=1;fontSize=14;strokeColor=#030303;" parent="1" vertex="1">
                    <mxGeometry x="43" y="222" width="80" height="21" as="geometry"/>
                </mxCell>
                <mxCell id="10" value="&lt;span style=&quot;font-size: 12px&quot;&gt;ZipCode&lt;/span&gt;" style="ellipse;whiteSpace=wrap;html=1;fontSize=14;strokeColor=#030303;" parent="1" vertex="1">
                    <mxGeometry x="56" y="251" width="80" height="21" as="geometry"/>
                </mxCell>
                <mxCell id="11" style="rounded=0;orthogonalLoop=1;jettySize=auto;html=1;exitX=1;exitY=0.5;exitDx=0;exitDy=0;entryX=0;entryY=1;entryDx=0;entryDy=0;fontSize=12;endArrow=none;endFill=0;strokeColor=#030303;" parent="1" source="10" target="12A3PGkBAE_qX95ZuoiP-5" edge="1">
                    <mxGeometry relative="1" as="geometry">
                        <mxPoint x="108" y="311" as="sourcePoint"/>
                        <mxPoint x="147" y="291" as="targetPoint"/>
                    </mxGeometry>
                </mxCell>
                <mxCell id="12" style="rounded=0;orthogonalLoop=1;jettySize=auto;html=1;exitX=1;exitY=0.5;exitDx=0;exitDy=0;entryX=0;entryY=0.5;entryDx=0;entryDy=0;fontSize=12;endArrow=none;endFill=0;strokeColor=#030303;" parent="1" source="9" target="12A3PGkBAE_qX95ZuoiP-5" edge="1">
                    <mxGeometry relative="1" as="geometry">
                        <mxPoint x="145.99999999999955" y="271.5" as="sourcePoint"/>
                        <mxPoint x="157.22339886724626" y="251.16131137437947" as="targetPoint"/>
                    </mxGeometry>
                </mxCell>
                <mxCell id="13" style="rounded=0;orthogonalLoop=1;jettySize=auto;html=1;entryX=1;entryY=0.5;entryDx=0;entryDy=0;fontSize=12;endArrow=none;endFill=0;strokeColor=#030303;" parent="1" source="12A3PGkBAE_qX95ZuoiP-5" target="8" edge="1">
                    <mxGeometry relative="1" as="geometry">
                        <mxPoint x="132.99999999999613" y="242.5" as="sourcePoint"/>
                        <mxPoint x="144" y="236.99999999999994" as="targetPoint"/>
                    </mxGeometry>
                </mxCell>
                <mxCell id="14" value="&lt;span style=&quot;font-size: 12px&quot;&gt;HourStart&lt;/span&gt;" style="ellipse;whiteSpace=wrap;html=1;fontSize=14;strokeColor=#030303;" parent="1" vertex="1">
                    <mxGeometry x="714" y="417" width="66" height="21" as="geometry"/>
                </mxCell>
                <mxCell id="15" value="&lt;span style=&quot;font-size: 12px&quot;&gt;HourEnd&lt;/span&gt;" style="ellipse;whiteSpace=wrap;html=1;fontSize=14;strokeColor=#030303;" parent="1" vertex="1">
                    <mxGeometry x="714" y="448.5" width="66" height="21" as="geometry"/>
                </mxCell>
                <mxCell id="16" value="" style="rounded=0;orthogonalLoop=1;jettySize=auto;html=1;fontSize=12;endArrow=none;endFill=0;strokeColor=#030303;entryX=1;entryY=0;entryDx=0;entryDy=0;exitX=0;exitY=0.5;exitDx=0;exitDy=0;" parent="1" source="14" target="12A3PGkBAE_qX95ZuoiP-39" edge="1">
                    <mxGeometry relative="1" as="geometry">
                        <mxPoint x="658" y="407" as="sourcePoint"/>
                        <mxPoint x="619" y="407" as="targetPoint"/>
                    </mxGeometry>
                </mxCell>
                <mxCell id="17" value="" style="rounded=0;orthogonalLoop=1;jettySize=auto;html=1;fontSize=12;endArrow=none;endFill=0;strokeColor=#030303;entryX=1;entryY=1;entryDx=0;entryDy=0;exitX=0;exitY=0.5;exitDx=0;exitDy=0;" parent="1" source="15" target="12A3PGkBAE_qX95ZuoiP-39" edge="1">
                    <mxGeometry relative="1" as="geometry">
                        <mxPoint x="723.9999999999985" y="437.5" as="sourcePoint"/>
                        <mxPoint x="703.0165042944975" y="443.893398282201" as="targetPoint"/>
                    </mxGeometry>
                </mxCell>
                <mxCell id="18" style="edgeStyle=none;rounded=0;orthogonalLoop=1;jettySize=auto;html=1;exitX=0;exitY=0;exitDx=130;exitDy=20;entryX=0;entryY=0.25;entryDx=0;entryDy=0;fontSize=10;endArrow=none;endFill=0;strokeColor=#030303;exitPerimeter=0;dashed=1;" parent="1" source="7" target="12A3PGkBAE_qX95ZuoiP-2" edge="1">
                    <mxGeometry relative="1" as="geometry">
                        <mxPoint x="357" y="436.9999999999998" as="sourcePoint"/>
                        <mxPoint x="414" y="407" as="targetPoint"/>
                    </mxGeometry>
                </mxCell>
                <mxCell id="20" value="&lt;span style=&quot;font-size: 12px&quot;&gt;Name&lt;/span&gt;" style="ellipse;whiteSpace=wrap;html=1;fontSize=14;strokeColor=#030303;" vertex="1" parent="1">
                    <mxGeometry x="176" y="287" width="45" height="25" as="geometry"/>
                </mxCell>
                <mxCell id="22" style="rounded=0;orthogonalLoop=1;jettySize=auto;html=1;exitX=1;exitY=0.5;exitDx=0;exitDy=0;entryX=0.25;entryY=1;entryDx=0;entryDy=0;fontSize=12;endArrow=none;endFill=0;strokeColor=#030303;" edge="1" parent="1" source="20" target="12A3PGkBAE_qX95ZuoiP-1">
                    <mxGeometry relative="1" as="geometry">
                        <mxPoint x="230.99999999999943" y="294.5" as="sourcePoint"/>
                        <mxPoint x="251" y="254.5" as="targetPoint"/>
                    </mxGeometry>
                </mxCell>
            </root>
        </mxGraphModel>
    </diagram>
</mxfile>